<svg width="305" height="238" viewBox="0 0 305 238" fill="none" xmlns="http://www.w3.org/2000/svg">
<rect width="305" height="238" fill="#DEDE6D"/>
<path d="M66.632 125V80.2H76.36L92.68 106.76L85.704 106.696L102.216 80.2H111.56V125H101V111.048C101 107.208 101.085 103.752 101.256 100.68C101.469 97.608 101.811 94.5573 102.28 91.528L103.496 94.856L91.08 114.12H86.856L74.696 94.984L75.912 91.528C76.3813 94.3867 76.7013 97.3307 76.872 100.36C77.0853 103.347 77.192 106.909 77.192 111.048V125H66.632ZM126.02 139.72L133.764 121.48L133.892 126.728L117.508 91.016H129.092L136.26 108.104C136.644 108.957 137.006 109.875 137.348 110.856C137.689 111.837 137.945 112.776 138.116 113.672L136.708 114.504C136.964 113.864 137.241 113.075 137.54 112.136C137.881 111.155 138.244 110.109 138.628 109L144.9 91.016H156.548L142.084 125L136.196 139.72H126.02Z" fill="black"/>
<path d="M171.708 125.36C169.812 125.36 168.06 125.048 166.452 124.424C164.868 123.776 163.488 122.876 162.312 121.724C161.136 120.548 160.224 119.168 159.576 117.584C158.952 115.976 158.64 114.212 158.64 112.292C158.64 110.42 158.976 108.692 159.648 107.108C160.32 105.524 161.244 104.156 162.42 103.004C163.62 101.828 165.024 100.916 166.632 100.268C168.264 99.62 170.04 99.296 171.96 99.296C173.16 99.296 174.336 99.452 175.488 99.764C176.64 100.076 177.708 100.544 178.692 101.168C179.7 101.768 180.564 102.488 181.284 103.328L177.54 107.612C177.036 107.084 176.496 106.628 175.92 106.244C175.368 105.836 174.756 105.524 174.084 105.308C173.412 105.092 172.692 104.984 171.924 104.984C170.964 104.984 170.052 105.164 169.188 105.524C168.348 105.86 167.604 106.352 166.956 107C166.332 107.624 165.84 108.392 165.48 109.304C165.12 110.216 164.94 111.236 164.94 112.364C164.94 113.468 165.12 114.476 165.48 115.388C165.84 116.276 166.344 117.044 166.992 117.692C167.64 118.34 168.42 118.832 169.332 119.168C170.268 119.504 171.3 119.672 172.428 119.672C173.196 119.672 173.928 119.564 174.624 119.348C175.32 119.132 175.956 118.844 176.532 118.484C177.132 118.1 177.66 117.668 178.116 117.188L181.068 121.868C180.468 122.54 179.664 123.14 178.656 123.668C177.672 124.196 176.568 124.616 175.344 124.928C174.144 125.216 172.932 125.36 171.708 125.36ZM196.74 125.36C194.82 125.36 193.068 125.036 191.484 124.388C189.9 123.74 188.52 122.828 187.344 121.652C186.168 120.476 185.256 119.096 184.608 117.512C183.96 115.928 183.636 114.188 183.636 112.292C183.636 110.396 183.96 108.656 184.608 107.072C185.256 105.488 186.168 104.108 187.344 102.932C188.52 101.756 189.9 100.844 191.484 100.196C193.068 99.548 194.808 99.224 196.704 99.224C198.6 99.224 200.34 99.548 201.924 100.196C203.508 100.844 204.888 101.756 206.064 102.932C207.24 104.108 208.14 105.488 208.764 107.072C209.412 108.656 209.736 110.396 209.736 112.292C209.736 114.164 209.412 115.904 208.764 117.512C208.14 119.096 207.24 120.476 206.064 121.652C204.888 122.828 203.508 123.74 201.924 124.388C200.34 125.036 198.612 125.36 196.74 125.36ZM196.704 119.6C197.688 119.6 198.588 119.42 199.404 119.06C200.244 118.7 200.964 118.196 201.564 117.548C202.188 116.876 202.668 116.096 203.004 115.208C203.34 114.32 203.508 113.348 203.508 112.292C203.508 111.236 203.34 110.264 203.004 109.376C202.668 108.488 202.188 107.72 201.564 107.072C200.964 106.4 200.244 105.884 199.404 105.524C198.588 105.164 197.688 104.984 196.704 104.984C195.72 104.984 194.808 105.164 193.968 105.524C193.152 105.884 192.432 106.4 191.808 107.072C191.184 107.72 190.704 108.488 190.368 109.376C190.056 110.264 189.9 111.236 189.9 112.292C189.9 113.348 190.056 114.332 190.368 115.244C190.704 116.132 191.184 116.9 191.808 117.548C192.432 118.196 193.152 118.7 193.968 119.06C194.808 119.42 195.72 119.6 196.704 119.6ZM214.471 125V99.8H219.943L229.123 114.74L225.199 114.704L234.487 99.8H239.743V125H233.803V117.152C233.803 114.992 233.851 113.048 233.947 111.32C234.067 109.592 234.259 107.876 234.523 106.172L235.207 108.044L228.223 118.88H225.847L219.007 108.116L219.691 106.172C219.955 107.78 220.135 109.436 220.231 111.14C220.351 112.82 220.411 114.824 220.411 117.152V125H214.471Z" fill="#038827"/>
<path d="M164.515 135V128.7H165.199L167.62 132.633L167.296 132.624L169.744 128.7H170.383V135H169.681V132.12C169.681 131.58 169.69 131.094 169.708 130.662C169.726 130.23 169.759 129.801 169.807 129.375L169.933 129.627L167.674 133.173H167.188L164.992 129.672L165.091 129.375C165.139 129.777 165.172 130.191 165.19 130.617C165.208 131.037 165.217 131.538 165.217 132.12V135H164.515ZM173.762 137.07L174.671 134.856L174.734 135.495L172.376 130.302H173.141L174.752 133.902C174.8 133.998 174.848 134.112 174.896 134.244C174.944 134.37 174.989 134.496 175.031 134.622L174.779 134.595C174.821 134.493 174.86 134.388 174.896 134.28C174.938 134.172 174.977 134.067 175.013 133.965L176.426 130.302H177.2L175.301 135L174.491 137.07H173.762ZM184.412 135.09C183.968 135.09 183.572 134.985 183.224 134.775C182.876 134.559 182.6 134.268 182.396 133.902C182.198 133.53 182.099 133.11 182.099 132.642C182.099 132.174 182.198 131.757 182.396 131.391C182.6 131.019 182.876 130.728 183.224 130.518C183.572 130.308 183.971 130.203 184.421 130.203C184.823 130.203 185.189 130.284 185.519 130.446C185.849 130.602 186.113 130.821 186.311 131.103L185.915 131.589C185.801 131.439 185.663 131.307 185.501 131.193C185.345 131.079 185.174 130.992 184.988 130.932C184.808 130.866 184.628 130.833 184.448 130.833C184.13 130.833 183.845 130.914 183.593 131.076C183.341 131.232 183.14 131.445 182.99 131.715C182.846 131.985 182.774 132.294 182.774 132.642C182.774 132.99 182.846 133.302 182.99 133.578C183.14 133.848 183.341 134.061 183.593 134.217C183.845 134.373 184.127 134.451 184.439 134.451C184.619 134.451 184.796 134.424 184.97 134.37C185.144 134.31 185.309 134.226 185.465 134.118C185.621 134.01 185.765 133.875 185.897 133.713L186.293 134.199C186.089 134.469 185.816 134.685 185.474 134.847C185.132 135.009 184.778 135.09 184.412 135.09ZM190.249 135.09C189.781 135.09 189.364 134.985 188.998 134.775C188.638 134.565 188.353 134.274 188.143 133.902C187.939 133.53 187.837 133.107 187.837 132.633C187.837 132.165 187.939 131.748 188.143 131.382C188.353 131.016 188.638 130.728 188.998 130.518C189.364 130.308 189.781 130.203 190.249 130.203C190.711 130.203 191.122 130.308 191.482 130.518C191.848 130.728 192.133 131.016 192.337 131.382C192.547 131.748 192.652 132.165 192.652 132.633C192.652 133.107 192.547 133.53 192.337 133.902C192.133 134.274 191.848 134.565 191.482 134.775C191.122 134.985 190.711 135.09 190.249 135.09ZM190.249 134.451C190.579 134.451 190.873 134.373 191.131 134.217C191.389 134.055 191.59 133.839 191.734 133.569C191.878 133.293 191.95 132.981 191.95 132.633C191.95 132.285 191.878 131.976 191.734 131.706C191.59 131.436 191.389 131.226 191.131 131.076C190.873 130.92 190.579 130.842 190.249 130.842C189.919 130.842 189.622 130.92 189.358 131.076C189.1 131.226 188.896 131.439 188.746 131.715C188.602 131.985 188.533 132.291 188.539 132.633C188.533 132.981 188.602 133.293 188.746 133.569C188.896 133.839 189.1 134.055 189.358 134.217C189.622 134.373 189.919 134.451 190.249 134.451ZM194.627 135V130.302H195.302L195.32 131.373L195.185 131.418C195.233 131.238 195.311 131.076 195.419 130.932C195.533 130.782 195.668 130.653 195.824 130.545C195.98 130.437 196.151 130.356 196.337 130.302C196.523 130.242 196.718 130.212 196.922 130.212C197.168 130.212 197.387 130.254 197.579 130.338C197.777 130.416 197.942 130.554 198.074 130.752C198.212 130.944 198.317 131.199 198.389 131.517L198.227 131.436L198.29 131.283C198.35 131.145 198.437 131.013 198.551 130.887C198.671 130.755 198.806 130.638 198.956 130.536C199.112 130.434 199.28 130.356 199.46 130.302C199.646 130.242 199.835 130.212 200.027 130.212C200.357 130.212 200.636 130.284 200.864 130.428C201.092 130.566 201.263 130.779 201.377 131.067C201.497 131.355 201.557 131.721 201.557 132.165V135H200.864V132.201C200.864 131.889 200.825 131.634 200.747 131.436C200.669 131.238 200.552 131.091 200.396 130.995C200.246 130.893 200.054 130.842 199.82 130.842C199.616 130.842 199.427 130.878 199.253 130.95C199.085 131.016 198.938 131.112 198.812 131.238C198.692 131.358 198.596 131.496 198.524 131.652C198.458 131.808 198.425 131.976 198.425 132.156V135H197.741V132.192C197.741 131.892 197.699 131.643 197.615 131.445C197.537 131.247 197.42 131.097 197.264 130.995C197.108 130.893 196.916 130.842 196.688 130.842C196.49 130.842 196.307 130.878 196.139 130.95C195.971 131.016 195.824 131.109 195.698 131.229C195.578 131.349 195.482 131.487 195.41 131.643C195.344 131.799 195.311 131.967 195.311 132.147V135H194.627ZM203.828 135V130.302H204.503L204.521 131.373L204.386 131.418C204.434 131.238 204.512 131.076 204.62 130.932C204.734 130.782 204.869 130.653 205.025 130.545C205.181 130.437 205.352 130.356 205.538 130.302C205.724 130.242 205.919 130.212 206.123 130.212C206.369 130.212 206.588 130.254 206.78 130.338C206.978 130.416 207.143 130.554 207.275 130.752C207.413 130.944 207.518 131.199 207.59 131.517L207.428 131.436L207.491 131.283C207.551 131.145 207.638 131.013 207.752 130.887C207.872 130.755 208.007 130.638 208.157 130.536C208.313 130.434 208.481 130.356 208.661 130.302C208.847 130.242 209.036 130.212 209.228 130.212C209.558 130.212 209.837 130.284 210.065 130.428C210.293 130.566 210.464 130.779 210.578 131.067C210.698 131.355 210.758 131.721 210.758 132.165V135H210.065V132.201C210.065 131.889 210.026 131.634 209.948 131.436C209.87 131.238 209.753 131.091 209.597 130.995C209.447 130.893 209.255 130.842 209.021 130.842C208.817 130.842 208.628 130.878 208.454 130.95C208.286 131.016 208.139 131.112 208.013 131.238C207.893 131.358 207.797 131.496 207.725 131.652C207.659 131.808 207.626 131.976 207.626 132.156V135H206.942V132.192C206.942 131.892 206.9 131.643 206.816 131.445C206.738 131.247 206.621 131.097 206.465 130.995C206.309 130.893 206.117 130.842 205.889 130.842C205.691 130.842 205.508 130.878 205.34 130.95C205.172 131.016 205.025 131.109 204.899 131.229C204.779 131.349 204.683 131.487 204.611 131.643C204.545 131.799 204.512 131.967 204.512 132.147V135H203.828ZM214.702 135.09C214.342 135.09 214.036 135.018 213.784 134.874C213.538 134.724 213.349 134.508 213.217 134.226C213.091 133.944 213.028 133.593 213.028 133.173V130.302H213.712V133.038C213.712 133.356 213.754 133.623 213.838 133.839C213.928 134.049 214.06 134.208 214.234 134.316C214.414 134.424 214.633 134.478 214.891 134.478C215.089 134.478 215.272 134.445 215.44 134.379C215.608 134.307 215.755 134.211 215.881 134.091C216.007 133.971 216.106 133.83 216.178 133.668C216.25 133.506 216.286 133.335 216.286 133.155V130.302H216.961V135H216.295L216.268 134.01L216.376 133.956C216.304 134.166 216.184 134.358 216.016 134.532C215.848 134.7 215.647 134.835 215.413 134.937C215.185 135.039 214.948 135.09 214.702 135.09ZM219.275 135V130.302H219.941L219.968 131.283L219.86 131.328C219.92 131.124 220.037 130.938 220.211 130.77C220.385 130.602 220.592 130.467 220.832 130.365C221.078 130.257 221.33 130.203 221.588 130.203C221.936 130.203 222.227 130.272 222.461 130.41C222.695 130.548 222.872 130.761 222.992 131.049C223.112 131.337 223.172 131.703 223.172 132.147V135H222.488V132.183C222.488 131.871 222.446 131.616 222.362 131.418C222.284 131.214 222.161 131.064 221.993 130.968C221.825 130.872 221.618 130.827 221.372 130.833C221.168 130.833 220.979 130.869 220.805 130.941C220.631 131.007 220.481 131.1 220.355 131.22C220.229 131.34 220.13 131.478 220.058 131.634C219.986 131.79 219.95 131.958 219.95 132.138V135H219.617C219.575 135 219.527 135 219.473 135C219.419 135 219.353 135 219.275 135ZM225.641 135V130.302H226.316V135H225.641ZM225.974 129.285C225.806 129.285 225.677 129.243 225.587 129.159C225.503 129.069 225.461 128.949 225.461 128.799C225.461 128.649 225.506 128.529 225.596 128.439C225.686 128.349 225.812 128.304 225.974 128.304C226.136 128.304 226.262 128.349 226.352 128.439C226.442 128.523 226.487 128.643 226.487 128.799C226.487 128.943 226.442 129.06 226.352 129.15C226.262 129.24 226.136 129.285 225.974 129.285ZM229.438 135V129.069H230.113V135H229.438ZM228.376 130.95V130.302H231.301V130.95H228.376ZM233.922 137.07L234.831 134.856L234.894 135.495L232.536 130.302H233.301L234.912 133.902C234.96 133.998 235.008 134.112 235.056 134.244C235.104 134.37 235.149 134.496 235.191 134.622L234.939 134.595C234.981 134.493 235.02 134.388 235.056 134.28C235.098 134.172 235.137 134.067 235.173 133.965L236.586 130.302H237.36L235.461 135L234.651 137.07H233.922Z" fill="black"/>
</svg>
