<svg width="185" height="100" viewBox="0 0 185 100" fill="none" xmlns="http://www.w3.org/2000/svg">
<path d="M5.632 64V19.2H15.36L31.68 45.76L24.704 45.696L41.216 19.2H50.56V64H40V50.048C40 46.208 40.0853 42.752 40.256 39.68C40.4693 36.608 40.8107 33.5573 41.28 30.528L42.496 33.856L30.08 53.12H25.856L13.696 33.984L14.912 30.528C15.3813 33.3867 15.7013 36.3307 15.872 39.36C16.0853 42.3467 16.192 45.9093 16.192 50.048V64H5.632ZM65.0195 78.72L72.7635 60.48L72.8915 65.728L56.5075 30.016H68.0915L75.2595 47.104C75.6435 47.9573 76.0062 48.8747 76.3475 49.856C76.6888 50.8373 76.9448 51.776 77.1155 52.672L75.7075 53.504C75.9635 52.864 76.2408 52.0747 76.5395 51.136C76.8808 50.1547 77.2435 49.1093 77.6275 48L83.8995 30.016H95.5475L81.0835 64L75.1955 78.72H65.0195Z" fill="black"/>
<path d="M110.708 64.36C108.812 64.36 107.06 64.048 105.452 63.424C103.868 62.776 102.488 61.876 101.312 60.724C100.136 59.548 99.2238 58.168 98.5758 56.584C97.9518 54.976 97.6398 53.212 97.6398 51.292C97.6398 49.42 97.9758 47.692 98.6478 46.108C99.3198 44.524 100.244 43.156 101.42 42.004C102.62 40.828 104.024 39.916 105.632 39.268C107.264 38.62 109.04 38.296 110.96 38.296C112.16 38.296 113.336 38.452 114.488 38.764C115.64 39.076 116.708 39.544 117.692 40.168C118.7 40.768 119.564 41.488 120.284 42.328L116.54 46.612C116.036 46.084 115.496 45.628 114.92 45.244C114.368 44.836 113.756 44.524 113.084 44.308C112.412 44.092 111.692 43.984 110.924 43.984C109.964 43.984 109.052 44.164 108.188 44.524C107.348 44.86 106.604 45.352 105.956 46C105.332 46.624 104.84 47.392 104.48 48.304C104.12 49.216 103.94 50.236 103.94 51.364C103.94 52.468 104.12 53.476 104.48 54.388C104.84 55.276 105.344 56.044 105.992 56.692C106.64 57.34 107.42 57.832 108.332 58.168C109.268 58.504 110.3 58.672 111.428 58.672C112.196 58.672 112.928 58.564 113.624 58.348C114.32 58.132 114.956 57.844 115.532 57.484C116.132 57.1 116.66 56.668 117.116 56.188L120.068 60.868C119.468 61.54 118.664 62.14 117.656 62.668C116.672 63.196 115.568 63.616 114.344 63.928C113.144 64.216 111.932 64.36 110.708 64.36ZM135.74 64.36C133.82 64.36 132.068 64.036 130.484 63.388C128.9 62.74 127.52 61.828 126.344 60.652C125.168 59.476 124.256 58.096 123.608 56.512C122.96 54.928 122.636 53.188 122.636 51.292C122.636 49.396 122.96 47.656 123.608 46.072C124.256 44.488 125.168 43.108 126.344 41.932C127.52 40.756 128.9 39.844 130.484 39.196C132.068 38.548 133.808 38.224 135.704 38.224C137.6 38.224 139.34 38.548 140.924 39.196C142.508 39.844 143.888 40.756 145.064 41.932C146.24 43.108 147.14 44.488 147.764 46.072C148.412 47.656 148.736 49.396 148.736 51.292C148.736 53.164 148.412 54.904 147.764 56.512C147.14 58.096 146.24 59.476 145.064 60.652C143.888 61.828 142.508 62.74 140.924 63.388C139.34 64.036 137.612 64.36 135.74 64.36ZM135.704 58.6C136.688 58.6 137.588 58.42 138.404 58.06C139.244 57.7 139.964 57.196 140.564 56.548C141.188 55.876 141.668 55.096 142.004 54.208C142.34 53.32 142.508 52.348 142.508 51.292C142.508 50.236 142.34 49.264 142.004 48.376C141.668 47.488 141.188 46.72 140.564 46.072C139.964 45.4 139.244 44.884 138.404 44.524C137.588 44.164 136.688 43.984 135.704 43.984C134.72 43.984 133.808 44.164 132.968 44.524C132.152 44.884 131.432 45.4 130.808 46.072C130.184 46.72 129.704 47.488 129.368 48.376C129.056 49.264 128.9 50.236 128.9 51.292C128.9 52.348 129.056 53.332 129.368 54.244C129.704 55.132 130.184 55.9 130.808 56.548C131.432 57.196 132.152 57.7 132.968 58.06C133.808 58.42 134.72 58.6 135.704 58.6ZM153.471 64V38.8H158.943L168.123 53.74L164.199 53.704L173.487 38.8H178.743V64H172.803V56.152C172.803 53.992 172.851 52.048 172.947 50.32C173.067 48.592 173.259 46.876 173.523 45.172L174.207 47.044L167.223 57.88H164.847L158.007 47.116L158.691 45.172C158.955 46.78 159.135 48.436 159.231 50.14C159.351 51.82 159.411 53.824 159.411 56.152V64H153.471Z" fill="#038827"/>
<path d="M103.515 74V67.7H104.199L106.62 71.633L106.296 71.624L108.744 67.7H109.383V74H108.681V71.12C108.681 70.58 108.69 70.094 108.708 69.662C108.726 69.23 108.759 68.801 108.807 68.375L108.933 68.627L106.674 72.173H106.188L103.992 68.672L104.091 68.375C104.139 68.777 104.172 69.191 104.19 69.617C104.208 70.037 104.217 70.538 104.217 71.12V74H103.515ZM112.762 76.07L113.671 73.856L113.734 74.495L111.376 69.302H112.141L113.752 72.902C113.8 72.998 113.848 73.112 113.896 73.244C113.944 73.37 113.989 73.496 114.031 73.622L113.779 73.595C113.821 73.493 113.86 73.388 113.896 73.28C113.938 73.172 113.977 73.067 114.013 72.965L115.426 69.302H116.2L114.301 74L113.491 76.07H112.762ZM123.412 74.09C122.968 74.09 122.572 73.985 122.224 73.775C121.876 73.559 121.6 73.268 121.396 72.902C121.198 72.53 121.099 72.11 121.099 71.642C121.099 71.174 121.198 70.757 121.396 70.391C121.6 70.019 121.876 69.728 122.224 69.518C122.572 69.308 122.971 69.203 123.421 69.203C123.823 69.203 124.189 69.284 124.519 69.446C124.849 69.602 125.113 69.821 125.311 70.103L124.915 70.589C124.801 70.439 124.663 70.307 124.501 70.193C124.345 70.079 124.174 69.992 123.988 69.932C123.808 69.866 123.628 69.833 123.448 69.833C123.13 69.833 122.845 69.914 122.593 70.076C122.341 70.232 122.14 70.445 121.99 70.715C121.846 70.985 121.774 71.294 121.774 71.642C121.774 71.99 121.846 72.302 121.99 72.578C122.14 72.848 122.341 73.061 122.593 73.217C122.845 73.373 123.127 73.451 123.439 73.451C123.619 73.451 123.796 73.424 123.97 73.37C124.144 73.31 124.309 73.226 124.465 73.118C124.621 73.01 124.765 72.875 124.897 72.713L125.293 73.199C125.089 73.469 124.816 73.685 124.474 73.847C124.132 74.009 123.778 74.09 123.412 74.09ZM129.249 74.09C128.781 74.09 128.364 73.985 127.998 73.775C127.638 73.565 127.353 73.274 127.143 72.902C126.939 72.53 126.837 72.107 126.837 71.633C126.837 71.165 126.939 70.748 127.143 70.382C127.353 70.016 127.638 69.728 127.998 69.518C128.364 69.308 128.781 69.203 129.249 69.203C129.711 69.203 130.122 69.308 130.482 69.518C130.848 69.728 131.133 70.016 131.337 70.382C131.547 70.748 131.652 71.165 131.652 71.633C131.652 72.107 131.547 72.53 131.337 72.902C131.133 73.274 130.848 73.565 130.482 73.775C130.122 73.985 129.711 74.09 129.249 74.09ZM129.249 73.451C129.579 73.451 129.873 73.373 130.131 73.217C130.389 73.055 130.59 72.839 130.734 72.569C130.878 72.293 130.95 71.981 130.95 71.633C130.95 71.285 130.878 70.976 130.734 70.706C130.59 70.436 130.389 70.226 130.131 70.076C129.873 69.92 129.579 69.842 129.249 69.842C128.919 69.842 128.622 69.92 128.358 70.076C128.1 70.226 127.896 70.439 127.746 70.715C127.602 70.985 127.533 71.291 127.539 71.633C127.533 71.981 127.602 72.293 127.746 72.569C127.896 72.839 128.1 73.055 128.358 73.217C128.622 73.373 128.919 73.451 129.249 73.451ZM133.627 74V69.302H134.302L134.32 70.373L134.185 70.418C134.233 70.238 134.311 70.076 134.419 69.932C134.533 69.782 134.668 69.653 134.824 69.545C134.98 69.437 135.151 69.356 135.337 69.302C135.523 69.242 135.718 69.212 135.922 69.212C136.168 69.212 136.387 69.254 136.579 69.338C136.777 69.416 136.942 69.554 137.074 69.752C137.212 69.944 137.317 70.199 137.389 70.517L137.227 70.436L137.29 70.283C137.35 70.145 137.437 70.013 137.551 69.887C137.671 69.755 137.806 69.638 137.956 69.536C138.112 69.434 138.28 69.356 138.46 69.302C138.646 69.242 138.835 69.212 139.027 69.212C139.357 69.212 139.636 69.284 139.864 69.428C140.092 69.566 140.263 69.779 140.377 70.067C140.497 70.355 140.557 70.721 140.557 71.165V74H139.864V71.201C139.864 70.889 139.825 70.634 139.747 70.436C139.669 70.238 139.552 70.091 139.396 69.995C139.246 69.893 139.054 69.842 138.82 69.842C138.616 69.842 138.427 69.878 138.253 69.95C138.085 70.016 137.938 70.112 137.812 70.238C137.692 70.358 137.596 70.496 137.524 70.652C137.458 70.808 137.425 70.976 137.425 71.156V74H136.741V71.192C136.741 70.892 136.699 70.643 136.615 70.445C136.537 70.247 136.42 70.097 136.264 69.995C136.108 69.893 135.916 69.842 135.688 69.842C135.49 69.842 135.307 69.878 135.139 69.95C134.971 70.016 134.824 70.109 134.698 70.229C134.578 70.349 134.482 70.487 134.41 70.643C134.344 70.799 134.311 70.967 134.311 71.147V74H133.627ZM142.828 74V69.302H143.503L143.521 70.373L143.386 70.418C143.434 70.238 143.512 70.076 143.62 69.932C143.734 69.782 143.869 69.653 144.025 69.545C144.181 69.437 144.352 69.356 144.538 69.302C144.724 69.242 144.919 69.212 145.123 69.212C145.369 69.212 145.588 69.254 145.78 69.338C145.978 69.416 146.143 69.554 146.275 69.752C146.413 69.944 146.518 70.199 146.59 70.517L146.428 70.436L146.491 70.283C146.551 70.145 146.638 70.013 146.752 69.887C146.872 69.755 147.007 69.638 147.157 69.536C147.313 69.434 147.481 69.356 147.661 69.302C147.847 69.242 148.036 69.212 148.228 69.212C148.558 69.212 148.837 69.284 149.065 69.428C149.293 69.566 149.464 69.779 149.578 70.067C149.698 70.355 149.758 70.721 149.758 71.165V74H149.065V71.201C149.065 70.889 149.026 70.634 148.948 70.436C148.87 70.238 148.753 70.091 148.597 69.995C148.447 69.893 148.255 69.842 148.021 69.842C147.817 69.842 147.628 69.878 147.454 69.95C147.286 70.016 147.139 70.112 147.013 70.238C146.893 70.358 146.797 70.496 146.725 70.652C146.659 70.808 146.626 70.976 146.626 71.156V74H145.942V71.192C145.942 70.892 145.9 70.643 145.816 70.445C145.738 70.247 145.621 70.097 145.465 69.995C145.309 69.893 145.117 69.842 144.889 69.842C144.691 69.842 144.508 69.878 144.34 69.95C144.172 70.016 144.025 70.109 143.899 70.229C143.779 70.349 143.683 70.487 143.611 70.643C143.545 70.799 143.512 70.967 143.512 71.147V74H142.828ZM153.702 74.09C153.342 74.09 153.036 74.018 152.784 73.874C152.538 73.724 152.349 73.508 152.217 73.226C152.091 72.944 152.028 72.593 152.028 72.173V69.302H152.712V72.038C152.712 72.356 152.754 72.623 152.838 72.839C152.928 73.049 153.06 73.208 153.234 73.316C153.414 73.424 153.633 73.478 153.891 73.478C154.089 73.478 154.272 73.445 154.44 73.379C154.608 73.307 154.755 73.211 154.881 73.091C155.007 72.971 155.106 72.83 155.178 72.668C155.25 72.506 155.286 72.335 155.286 72.155V69.302H155.961V74H155.295L155.268 73.01L155.376 72.956C155.304 73.166 155.184 73.358 155.016 73.532C154.848 73.7 154.647 73.835 154.413 73.937C154.185 74.039 153.948 74.09 153.702 74.09ZM158.275 74V69.302H158.941L158.968 70.283L158.86 70.328C158.92 70.124 159.037 69.938 159.211 69.77C159.385 69.602 159.592 69.467 159.832 69.365C160.078 69.257 160.33 69.203 160.588 69.203C160.936 69.203 161.227 69.272 161.461 69.41C161.695 69.548 161.872 69.761 161.992 70.049C162.112 70.337 162.172 70.703 162.172 71.147V74H161.488V71.183C161.488 70.871 161.446 70.616 161.362 70.418C161.284 70.214 161.161 70.064 160.993 69.968C160.825 69.872 160.618 69.827 160.372 69.833C160.168 69.833 159.979 69.869 159.805 69.941C159.631 70.007 159.481 70.1 159.355 70.22C159.229 70.34 159.13 70.478 159.058 70.634C158.986 70.79 158.95 70.958 158.95 71.138V74H158.617C158.575 74 158.527 74 158.473 74C158.419 74 158.353 74 158.275 74ZM164.641 74V69.302H165.316V74H164.641ZM164.974 68.285C164.806 68.285 164.677 68.243 164.587 68.159C164.503 68.069 164.461 67.949 164.461 67.799C164.461 67.649 164.506 67.529 164.596 67.439C164.686 67.349 164.812 67.304 164.974 67.304C165.136 67.304 165.262 67.349 165.352 67.439C165.442 67.523 165.487 67.643 165.487 67.799C165.487 67.943 165.442 68.06 165.352 68.15C165.262 68.24 165.136 68.285 164.974 68.285ZM168.438 74V68.069H169.113V74H168.438ZM167.376 69.95V69.302H170.301V69.95H167.376ZM172.922 76.07L173.831 73.856L173.894 74.495L171.536 69.302H172.301L173.912 72.902C173.96 72.998 174.008 73.112 174.056 73.244C174.104 73.37 174.149 73.496 174.191 73.622L173.939 73.595C173.981 73.493 174.02 73.388 174.056 73.28C174.098 73.172 174.137 73.067 174.173 72.965L175.586 69.302H176.36L174.461 74L173.651 76.07H172.922Z" fill="black"/>
</svg>
